PathFileType	4	(X/Y/Z)	/Users/itak/Documents/Research/Walk-IL/dataset/trc/00203_00008.trc
DataRate	CameraRate	NumFrames	NumMarkers	Units	OrigDataRate	OrigDataStartFrame	OrigNumFrames
100.000000	100.000000	4	55	mm	100.000000	192	512
Frame#	Time	RPSI			LPSI			L3			STRN			T10			C7			CLAV			RBAK			LBAK			LSHO			LUPA			LAEL			LAOL			LWTS			LWPS			LFRA			LIFD			LHPS			LHTS			RSHO			RUPA			RAEL			RAOL			RWTS			RWPS			RFRA			RIFD			RHTS			RHPS			RBHD			LFHD			RFHD			LBHD			LHIP			RHIP			RASI			LASI			LKNE			LTHI			LANK			LTIP			LTOE			LMT1			LMT5			LHEE			RKNE			RANK			RTIP			RTOE			RMT1			RMT5			RHEE			RTHI			*53			*54			
		X1	Y1	Z1	X2	Y2	Z2	X3	Y3	Z3	X4	Y4	Z4	X5	Y5	Z5	X6	Y6	Z6	X7	Y7	Z7	X8	Y8	Z8	X9	Y9	Z9	X10	Y10	Z10	X11	Y11	Z11	X12	Y12	Z12	X13	Y13	Z13	X14	Y14	Z14	X15	Y15	Z15	X16	Y16	Z16	X17	Y17	Z17	X18	Y18	Z18	X19	Y19	Z19	X20	Y20	Z20	X21	Y21	Z21	X22	Y22	Z22	X23	Y23	Z23	X24	Y24	Z24	X25	Y25	Z25	X26	Y26	Z26	X27	Y27	Z27	X28	Y28	Z28	X29	Y29	Z29	X30	Y30	Z30	X31	Y31	Z31	X32	Y32	Z32	X33	Y33	Z33	X34	Y34	Z34	X35	Y35	Z35	X36	Y36	Z36	X37	Y37	Z37	X38	Y38	Z38	X39	Y39	Z39	X40	Y40	Z40	X41	Y41	Z41	X42	Y42	Z42	X43	Y43	Z43	X44	Y44	Z44	X45	Y45	Z45	X46	Y46	Z46	X47	Y47	Z47	X48	Y48	Z48	X49	Y49	Z49	X50	Y50	Z50	X51	Y51	Z51	X52	Y52	Z52	X53	Y53	Z53	X54	Y54	Z54	X55	Y55	Z55	

193	1.92	-1088.296142578125	1057.08349609375	-475.2938537597656	-1074.682373046875	1062.236572265625	-597.8858032226562	-1079.024047851562	1098.744995117188	-531.2537841796875	-815.0924072265625	1297.856323242188	-493.7910461425781	-1106.058227539062	1253.900146484375	-529.763427734375	-1035.7802734375	1522.617431640625	-518.6976318359375	-838.9202270507812	1412.832275390625	-497.8513488769531	-1114.982543945312	1341.446411132812	-426.4581604003906	-1030.201416015625	1503.86376953125	-621.6560668945312	-943.36474609375	1493.692993164062	-690.232666015625	-961.3719482421875	1364.622192382812	-773.468505859375	-934.34619140625	1146.723510742188	-797.8306274414062	-989.7608642578125	1124.899780273438	-732.9437255859375	-789.9435424804688	938.6213989257812	-747.947998046875	-859.5812377929688	901.2960205078125	-797.0299682617188	-901.033203125	1038.77783203125	-808.4199829101562	-750.394775390625	773.7792358398438	-707.4404907226562	-824.7308349609375	837.5672607421875	-788.1387939453125	-760.4701538085938	864.2637939453125	-764.912841796875	-991.9291381835938	1487.958862304688	-332.7399291992188	-1015.265869140625	1417.090209960938	-267.9148864746094	-1016.152099609375	1125.440551757812	-219.0923919677734	-1011.612365722656	1119.068603515625	-317.3173522949219	-842.9823608398438	924.2987060546875	-219.5726470947266	-919.1441650390625	892.0718383789062	-186.3465728759766	-984.5891723632812	1056.014404296875	-198.7842407226562	-788.7722778320312	742.034423828125	-239.8809814453125	-802.2694702148438	836.8021240234375	-207.2071838378906	-876.8409423828125	816.01611328125	-184.5940856933594	-1012.052734375	1661.920288085938	-443.9597473144531	-821.5479125976562	1749.912475585938	-497.5318298339844	-867.9845581054688	1731.806640625	-378.0601501464844	-972.2214965820312	1687.581176757812	-573.7106323242188	-963.3303833007812	998.5717163085938	-712.2977905273438	-946.5831909179688	1009.122741699219	-341.1843566894531	-861.3704223632812	1034.0703125	-384.8896789550781	-847.5155639648438	1037.837158203125	-642.5690307617188	-793.69921875	508.6078491210938	-699.9896850585938	-833.2322387695312	652.3077392578125	-717.1752319335938	-1139.610229492188	174.8484649658203	-704.8175659179688	-954.277099609375	338.265869140625	-714.8331909179688	-958.835205078125	57.31270599365234	-691.1879272460938	-1000.237915039062	76.66436767578125	-644.5767822265625	-1056.928955078125	110.0671920776367	-749.7431030273438	-1175.07470703125	200.4118499755859	-633.4896850585938	-890.3441162109375	508.3515930175781	-415.6317443847656	-992.9933471679688	31.35397911071777	-478.602783203125	-880.5554809570312	386.9393615722656	-444.6217651367188	-769.2760009765625	45.8404426574707	-489.6509094238281	-817.6079711914062	43.51779937744141	-540.0902099609375	-885.4293823242188	33.93940353393555	-432.5201721191406	-1034.92333984375	33.14037322998047	-552.5332641601562	-877.5179443359375	775.7476806640625	-347.6436767578125	nan	nan	nan	nan	nan	nan	
194	1.93	-1080.765991210938	1057.2353515625	-474.3656311035156	-1066.0859375	1062.535522460938	-596.7350463867188	-1070.95703125	1098.930053710938	-529.9697265625	-807.375732421875	1298.090576171875	-490.5997619628906	-1098.019653320312	1254.261840820312	-528.2670288085938	-1027.743041992188	1522.865112304688	-516.9883422851562	-831.0385131835938	1413.107666015625	-495.0321044921875	-1107.46875	1341.931396484375	-424.9495544433594	-1021.664306640625	1504.041381835938	-619.8516235351562	-934.5159912109375	1493.7880859375	-687.9365844726562	-952.1412353515625	1364.911376953125	-771.432373046875	-924.7719116210938	1147.035522460938	-795.9570922851562	-980.391845703125	1124.918090820312	-731.364013671875	-777.6536865234375	941.2645874023438	-744.5438232421875	-846.6812744140625	902.480712890625	-793.756591796875	-890.1338500976562	1039.344482421875	-806.02392578125	-735.6065063476562	777.127197265625	-703.13623046875	-810.8369140625	839.3651123046875	-784.3942260742188	-747.2069702148438	867.2476196289062	-761.0736083984375	-984.7324829101562	1488.515380859375	-330.7826232910156	-1008.070983886719	1417.67822265625	-265.8869934082031	-1006.803039550781	1126.007080078125	-216.2843475341797	-1002.40966796875	1119.465454101562	-314.5169372558594	-831.7328491210938	926.5537719726562	-216.6128692626953	-907.5162353515625	893.553466796875	-183.3306274414062	-974.5721435546875	1056.851196289062	-195.8915710449219	-775.4888916015625	744.9144287109375	-236.5865631103516	-790.0526733398438	839.5633544921875	-204.0554504394531	-864.3634643554688	817.9759521484375	-181.4410400390625	-1004.2099609375	1662.193969726562	-442.2465515136719	-813.4623413085938	1750.10986328125	-495.0872802734375	-860.412841796875	1732.1689453125	-375.78955078125	-963.7538452148438	1687.697875976562	-571.8604736328125	-953.0382690429688	999.4298095703125	-710.2081909179688	-940.836669921875	1008.488952636719	-338.4725341796875	-855.0015869140625	1034.160522460938	-381.3680725097656	-838.3906860351562	1038.53564453125	-638.7991333007812	-776.3258666992188	511.3330688476562	-693.7293701171875	-817.9775390625	654.5750122070312	-712.517578125	-1109.671997070312	164.4089813232422	-701.56884765625	-931.080078125	335.1124877929688	-709.9556274414062	-923.5531616210938	56.16978073120117	-686.9906005859375	-966.4301147460938	72.96047973632812	-640.5504150390625	-1023.750061035156	104.0546493530273	-745.9862060546875	-1147.06201171875	187.94384765625	-630.4165649414062	-888.806884765625	507.8122253417969	-414.0698547363281	-993.0458984375	31.33515357971191	-478.6493835449219	-879.4397583007812	386.5379333496094	-443.4280395507812	-769.2570190429688	45.73720169067383	-489.5218505859375	-817.6395263671875	43.59029006958008	-539.9130249023438	-885.5238037109375	33.80097961425781	-432.3323059082031	-1034.990112304688	33.35330581665039	-552.4134521484375	-873.1150512695312	774.9157104492188	-345.3098754882812	nan	nan	nan	nan	nan	nan	
195	1.94	-1073.219848632812	1057.289794921875	-473.4761657714844	-1057.458374023438	1062.721313476562	-595.60107421875	-1062.89501953125	1099.003295898438	-528.7233276367188	-799.64111328125	1298.182983398438	-487.3786010742188	-1089.964233398438	1254.51953125	-526.8161010742188	-1019.665893554688	1522.999267578125	-515.3015747070312	-823.1387329101562	1413.2421875	-492.1881103515625	-1099.947021484375	1342.313354492188	-423.4948120117188	-1013.054077148438	1504.087768554688	-618.0740356445312	-925.5408935546875	1493.70849609375	-685.6392211914062	-942.80712890625	1365.04296875	-769.3896484375	-915.1236572265625	1147.217529296875	-794.0961303710938	-971.0164184570312	1124.810791015625	-729.8663330078125	-765.5722045898438	943.6691284179688	-741.0421752929688	-833.904541015625	903.5591430664062	-790.5923461914062	-879.2212524414062	1039.794677734375	-803.66064453125	-721.3493041992188	780.2011108398438	-698.798095703125	-797.139404296875	841.023193359375	-780.748291015625	-734.1967163085938	869.97705078125	-757.1259155273438	-977.5394897460938	1488.935913085938	-328.8375854492188	-1000.916809082031	1418.144653320312	-263.8875427246094	-997.5736083984375	1126.450317382812	-213.5613250732422	-993.3060302734375	1119.7685546875	-311.8066711425781	-820.7139892578125	928.633544921875	-213.7327728271484	-896.1421508789062	894.8867797851562	-180.4447784423828	-964.7183227539062	1057.553833007812	-193.0948333740234	-762.5164794921875	747.6168212890625	-233.4465789794922	-778.1142578125	842.1407470703125	-201.0238647460938	-852.1488037109375	819.775634765625	-178.4306030273438	-996.332275390625	1662.36474609375	-440.6039733886719	-805.3539428710938	1750.196044921875	-492.7501220703125	-852.8313598632812	1732.505737304688	-373.6130676269531	-955.2596435546875	1687.621704101562	-570.0863037109375	-942.7943725585938	1000.163513183594	-708.1026611328125	-934.9940185546875	1007.805725097656	-335.783447265625	-848.5833740234375	1034.17919921875	-377.895751953125	-829.24951171875	1039.111694335938	-635.07080078125	-759.5890502929688	513.9645385742188	-687.444091796875	-803.1582641601562	656.7318115234375	-707.7720336914062	-1079.021728515625	153.5312042236328	-698.0082397460938	-907.8596801757812	331.7297973632812	-704.962890625	-887.8507690429688	55.22284317016602	-682.360107421875	-932.0113525390625	69.41189575195312	-636.0614624023438	-990.020751953125	97.80657196044922	-741.8095092773438	-1118.2119140625	175.0906829833984	-627.0864868164062	-887.3246459960938	507.286865234375	-412.5346374511719	-993.095458984375	31.31923294067383	-478.6956787109375	-878.359619140625	386.1602783203125	-442.2438049316406	-769.2847290039062	45.67507934570312	-489.3829650878906	-817.6817626953125	43.6796875	-539.7174072265625	-885.6160888671875	33.65987777709961	-432.1510314941406	-1034.999877929688	33.51933670043945	-552.3541870117188	-868.7176513671875	774.0615234375	-343.0669860839844	nan	nan	nan	nan	nan	nan	
196	1.95	-1065.6455078125	1057.230590820312	-472.6220703125	-1048.786376953125	1062.769897460938	-594.482666015625	-1054.83447265625	1098.9462890625	-527.5155639648438	-791.8831176757812	1298.121948242188	-484.138916015625	-1081.895874023438	1254.65673828125	-525.4160766601562	-1011.537536621094	1523.008422851562	-513.6358642578125	-815.2150268554688	1413.224731445312	-489.3251037597656	-1092.40966796875	1342.575317382812	-422.0943908691406	-1004.370544433594	1503.99462890625	-616.3225708007812	-916.4434814453125	1493.445434570312	-683.3426513671875	-933.3746337890625	1365.001831054688	-767.3369750976562	-905.4090576171875	1147.250854492188	-792.236572265625	-961.6175537109375	1124.560913085938	-728.4217529296875	-753.7236328125	945.7852783203125	-737.47900390625	-821.2718505859375	904.4982299804688	-787.529541015625	-868.3088989257812	1040.105346679688	-801.3233642578125	-707.6159057617188	782.9553833007812	-694.4537353515625	-783.6658325195312	842.5001831054688	-777.198974609375	-721.4334716796875	872.4115600585938	-753.0977172851562	-970.3350219726562	1489.198486328125	-326.9070129394531	-993.794921875	1418.47265625	-261.9162292480469	-988.4634399414062	1126.753784179688	-210.9151000976562	-984.3078002929688	1119.9560546875	-309.1708068847656	-809.9198608398438	930.5165405273438	-210.9378814697266	-885.0076293945312	896.0564575195312	-177.674072265625	-955.0200805664062	1058.107177734375	-190.3824157714844	-749.8539428710938	750.1210327148438	-230.4655456542969	-766.4429931640625	844.5097045898438	-198.1271667480469	-840.182861328125	821.39404296875	-175.5472869873047	-988.409423828125	1662.418579101562	-439.0287475585938	-797.2152709960938	1750.15771484375	-490.5111389160156	-845.234375	1732.794921875	-371.5238037109375	-946.7388916015625	1687.348266601562	-568.3824462890625	-932.59912109375	1000.749206542969	-705.9820556640625	-929.01611328125	1007.0947265625	-333.1626281738281	-842.0889282226562	1034.110107421875	-374.4755554199219	-820.0877685546875	1039.551391601562	-631.3934326171875	-743.5200805664062	516.4547729492188	-681.17626953125	-788.81591796875	658.72119140625	-702.9583129882812	-1047.66748046875	142.3949737548828	-694.1318969726562	-884.6384887695312	328.1760559082031	-699.873779296875	-851.8358154296875	54.52141189575195	-677.2183227539062	-897.05419921875	66.13443756103516	-631.03857421875	-955.7584228515625	91.43174743652344	-737.188232421875	-1088.539306640625	162.0294342041016	-623.514892578125	-885.8681030273438	506.7752380371094	-411.0185546875	-993.1458740234375	31.30301094055176	-478.741943359375	-877.294921875	385.8031921386719	-441.0670776367188	-769.3527221679688	45.64959716796875	-489.2321166992188	-817.7238159179688	43.78945159912109	-539.499755859375	-885.7057495117188	33.51528930664062	-431.9754943847656	-1034.965576171875	33.64152908325195	-552.3577270507812	-864.2952270507812	773.1865234375	-340.9080505371094	nan	nan	nan	nan	nan	nan	
